# xmcd
#
# Track frame offsets: 
#        150
#        12380
#        22772
#        40030
#        51545
#        67867
#        83605
#        98265
#        121422
#        142307
#        155250
#        176197
#        190227
#        209592
#
# Disc length: 3026 seconds
#
# Revision: 16
# Processed by: cddbd v1.5.2PL0 Copyright (c) Steve Scherf et al.
# Submitted via: ExactAudioCopy v0.95b3
#
DISCID=b70bd00e
DTITLE=Willie Nelson - Teatro
DYEAR=1998
DGENRE=Country
TTITLE0=Ou Es-Tu, Mon Amour? (Where Are You, My Love?)
TTITLE1=I Never Cared For You
TTITLE2=Everywhere I Go
TTITLE3=Darkness On The Face Of The Earth
TTITLE4=My Own Peculiar Way
TTITLE5=These Lonely Nights
TTITLE6=Home Motel
TTITLE7=The Maker
TTITLE8=I Just Can't Let You Say Good-bye
TTITLE9=I've Just Destroyed The World I'm Living In
TTITLE10=Somebody Pick Up My Pieces
TTITLE11=Three Days
TTITLE12=I've Loved You All Over The World
TTITLE13=Annie
EXTD=YEAR: 1998
EXTT0=
EXTT1=
EXTT2=
EXTT3=
EXTT4=
EXTT5=
EXTT6=
EXTT7=
EXTT8=
EXTT9=
EXTT10=
EXTT11=
EXTT12=
EXTT13=
PLAYORDER=
